<?xml version="1.0" encoding="UTF-8"?>
<svg width="406px" height="177px" viewBox="0 0 406 177" version="1.1" xmlns="http://www.w3.org/2000/svg" xmlns:xlink="http://www.w3.org/1999/xlink">
    <title>nutriscore_E</title>
    <defs>
        <rect id="path-1" x="0" y="0.1" width="401.6" height="132" rx="24"></rect>
    </defs>
    <g id="Page-1" stroke="none" stroke-width="1" fill="none" fill-rule="evenodd">
        <g id="Artboard" transform="translate(-4436.000000, -1589.000000)">
            <g id="nutriscore_E" transform="translate(4436.000000, 1593.500000)">
                <g id="Rectangle-+-Rectangle-+-Rectangle-+-Rectangle-+-Rectangle-Mask" transform="translate(0.000000, 17.700000)">
                    <mask id="mask-2" fill="white">
                        <use xlink:href="#path-1"></use>
                    </mask>
                    <g id="Mask"></g>
                    <rect id="Rectangle" fill="#50A591" mask="url(#mask-2)" x="0" y="-54.8" width="80.4" height="272"></rect>
                    <rect id="Rectangle" fill="#90C580" mask="url(#mask-2)" x="80.4" y="-46.4" width="80.4" height="272"></rect>
                    <rect id="Rectangle" fill="#F6BE56" mask="url(#mask-2)" x="160.4" y="-46.4" width="80.4" height="272"></rect>
                    <rect id="Rectangle" fill="#ED7E46" mask="url(#mask-2)" x="240.8" y="-46.4" width="80.4" height="272"></rect>
                    <rect id="Rectangle" fill="#D2293A" mask="url(#mask-2)" x="320.8" y="-46.4" width="80.4" height="272"></rect>
                    <path d="M60.22,91.125 C62.53,91.125 64.28,89.305 64.28,86.995 C64.28,86.435 64.14,85.805 63.79,85.175 L45.59,44.575 C44.61,42.405 42.93,41.075 40.48,41.075 L40.06,41.075 C37.61,41.075 35.86,42.405 34.88,44.575 L16.68,85.175 C16.33,85.875 16.12,86.505 16.12,87.135 C16.12,89.375 17.87,91.125 20.11,91.125 C21.93,91.125 23.4,90.145 24.1,88.395 L28.23,78.945 L52.03,78.945 L56.02,88.115 C56.79,89.935 58.19,91.125 60.22,91.125 Z M48.74,71.315 L31.52,71.315 L40.13,51.505 L48.74,71.315 Z" id="A" fill="#FFFFFF" fill-rule="nonzero" opacity="0.699999988" mask="url(#mask-2)"></path>
                    <path d="M122.875,90.6 C133.795,90.6 141.005,85.91 141.005,77.16 L141.005,77.02 C141.005,70.37 137.015,67.08 131.275,65.12 C134.915,63.23 138.275,60.08 138.275,54.2 L138.275,54.06 C138.275,50.77 137.155,48.11 134.985,45.94 C132.185,43.14 127.775,41.6 122.175,41.6 L104.535,41.6 C102.085,41.6 100.195,43.49 100.195,45.94 L100.195,86.26 C100.195,88.71 102.085,90.6 104.535,90.6 L122.875,90.6 Z M120.425,62.25 L108.665,62.25 L108.665,49.23 L121.055,49.23 C126.585,49.23 129.665,51.61 129.665,55.46 L129.665,55.6 C129.665,60.08 125.955,62.25 120.425,62.25 Z M122.945,82.97 L108.665,82.97 L108.665,69.53 L122.315,69.53 C129.105,69.53 132.395,71.98 132.395,76.11 L132.395,76.25 C132.395,80.66 128.825,82.97 122.945,82.97 Z" id="B" fill="#FFFFFF" fill-rule="nonzero" opacity="0.699999988" mask="url(#mask-2)"></path>
                    <path d="M203.67,91.44 C211.58,91.44 216.83,88.92 221.45,84.86 C222.22,84.16 222.85,83.11 222.85,81.78 C222.85,79.61 220.96,77.79 218.79,77.79 C217.74,77.79 216.83,78.21 216.2,78.77 C212.63,81.78 209.13,83.46 203.95,83.46 C194.57,83.46 187.78,75.69 187.78,66.1 L187.78,65.96 C187.78,56.37 194.64,48.67 203.95,48.67 C208.64,48.67 212.28,50.35 215.64,53.08 C216.2,53.5 217.04,53.92 218.23,53.92 C220.61,53.92 222.5,52.1 222.5,49.72 C222.5,48.18 221.73,46.99 220.82,46.29 C216.55,43 211.58,40.76 204.02,40.76 C189.18,40.76 178.75,52.17 178.75,66.1 L178.75,66.24 C178.75,80.31 189.39,91.44 203.67,91.44 Z" id="C" fill="#FFFFFF" fill-rule="nonzero" opacity="0.699999988" mask="url(#mask-2)"></path>
                    <path d="M277.115,90.6 C292.515,90.6 303.155,79.89 303.155,66.1 L303.155,65.96 C303.155,52.17 292.515,41.6 277.115,41.6 L263.185,41.6 C260.735,41.6 258.845,43.49 258.845,45.94 L258.845,86.26 C258.845,88.71 260.735,90.6 263.185,90.6 L277.115,90.6 Z M277.115,82.76 L267.455,82.76 L267.455,49.44 L277.115,49.44 C287.405,49.44 294.125,56.51 294.125,66.1 L294.125,66.24 C294.125,75.83 287.405,82.76 277.115,82.76 Z" id="D" fill="#FFFFFF" fill-rule="nonzero" opacity="0.699999988" mask="url(#mask-2)"></path>
                    <path d="M375.665,90.6 C377.765,90.6 379.515,88.92 379.515,86.75 C379.515,84.65 377.765,82.9 375.665,82.9 L351.095,82.9 L351.095,69.74 L372.165,69.74 C374.265,69.74 376.015,68.06 376.015,65.96 C376.015,63.79 374.265,62.04 372.165,62.04 L351.095,62.04 L351.095,49.3 L375.315,49.3 C377.415,49.3 379.165,47.62 379.165,45.45 C379.165,43.35 377.415,41.6 375.315,41.6 L346.825,41.6 C344.375,41.6 342.485,43.49 342.485,45.94 L342.485,86.26 C342.485,88.71 344.375,90.6 346.825,90.6 L375.665,90.6 Z" id="E" fill="#FFFFFF" fill-rule="nonzero" opacity="0.699999988" mask="url(#mask-2)"></path>
                </g>
                <g id="Group" transform="translate(314.800000, 0.000000)">
                    <rect id="Rectangle" stroke="#FFFFFF" stroke-width="8" fill="#D2293A" x="0" y="0" width="86.8" height="167.6" rx="40.2"></rect>
                    <path d="M58.065,108.3 C60.165,108.3 61.915,106.62 61.915,104.45 C61.915,102.35 60.165,100.6 58.065,100.6 L33.495,100.6 L33.495,87.44 L54.565,87.44 C56.665,87.44 58.415,85.76 58.415,83.66 C58.415,81.49 56.665,79.74 54.565,79.74 L33.495,79.74 L33.495,67 L57.715,67 C59.815,67 61.565,65.32 61.565,63.15 C61.565,61.05 59.815,59.3 57.715,59.3 L29.225,59.3 C26.775,59.3 24.885,61.19 24.885,63.64 L24.885,103.96 C24.885,106.41 26.775,108.3 29.225,108.3 L58.065,108.3 Z" id="E" fill="#FFFFFF" fill-rule="nonzero"></path>
                </g>
            </g>
        </g>
    </g>
</svg>